Coordinates
version=1
nRows=16
nColumns=40
inDegrees=yes

Units are S.I. units (second, meters, Newtons, ...)
Angles are in degrees.

endheader
time	pelvis_tilt	pelvis_list	pelvis_rotation	pelvis_tx	pelvis_ty	pelvis_tz	hip_flexion_r	hip_adduction_r	hip_rotation_r	knee_angle_r	knee_angle_r_beta	ankle_angle_r	subtalar_angle_r	mtp_angle_r	hip_flexion_l	hip_adduction_l	hip_rotation_l	knee_angle_l	knee_angle_l_beta	ankle_angle_l	subtalar_angle_l	mtp_angle_l	lumbar_extension	lumbar_bending	lumbar_rotation	arm_flex_r	arm_add_r	arm_rot_r	elbow_flex_r	pro_sup_r	wrist_flex_r	wrist_dev_r	arm_flex_l	arm_add_l	arm_rot_l	elbow_flex_l	pro_sup_l	wrist_flex_l	wrist_dev_l
     16.64500000	     -3.28634242	     -5.35950872	     -7.65714753	      0.99993326	      0.93190668	      0.40540278	     23.42041979	     -1.88084653	     -6.50503294	     25.74734173	     25.74734173	      4.91978545	     -2.10515936	     -3.83979862	      8.52393853	     -3.61189703	    -10.24858568	     20.86031325	     20.86031325	     17.53106640	    -13.40204165	      2.49891543	     -9.77299682	      6.19865827	      2.60871491	    -12.70516751	    -11.90518143	     -6.74693545	     27.21934237	     46.16545320	      0.00000000	      0.00000000	     31.40591579	    -15.73844437	     -3.72959817	     60.81943267	     47.54825846	      0.00000000	      0.00000000
     16.66907143	     -3.40545655	     -5.15617180	     -8.16970072	      0.99922143	      0.93194198	      0.40831626	     23.04954688	     -1.68782496	     -7.47986892	     22.11705523	     22.11705523	      4.83587224	      1.94852681	      0.01811054	      7.74945733	     -3.53113909	    -10.97305236	     19.79052116	     19.79052116	     16.84608411	    -13.16448326	      0.73768631	     -9.73914786	      5.92259606	      2.40290944	    -14.28505963	    -11.87465303	     -5.32742677	     29.04102877	     45.97212923	      0.00000000	      0.00000000	     31.67465275	    -16.20254926	     -5.67547542	     64.27724192	     47.72439192	      0.00000000	      0.00000000
     16.69314286	     -3.54174561	     -4.98431297	     -8.56338392	      0.99885279	      0.93168335	      0.41143628	     22.59570632	     -1.34311387	     -8.09763201	     18.83372984	     18.83372984	      3.68187589	      4.41874736	      1.35731034	      7.16675570	     -3.50115394	    -11.50338655	     19.12947143	     19.12947143	     16.90531792	    -12.82423866	      0.53300591	     -9.54786169	      5.72503479	      2.65493194	    -15.25373972	    -11.52813810	     -5.08160955	     28.85929739	     45.95455939	      0.00000000	      0.00000000	     32.81193214	    -16.44656897	     -6.01921887	     65.51114809	     47.77518176	      0.00000000	      0.00000000
     16.71721429	     -3.54317922	     -4.77325444	     -8.89106784	      0.99897912	      0.93139524	      0.41464569	     22.17098995	     -1.14694361	     -8.79634216	     16.53603233	     16.53603233	      2.84299744	      6.67971942	      2.66454998	      6.38492994	     -3.40929659	    -12.07617899	     18.40854931	     18.40854931	     16.95227978	    -12.31286947	      0.10927165	     -9.49782746	      5.48236633	      2.92555723	    -16.10615625	    -11.24434788	     -4.86988562	     28.90806516	     45.93085076	      0.00000000	      0.00000000	     33.70433414	    -16.56492676	     -6.54576094	     67.16524237	     47.84367307	      0.00000000	      0.00000000
     16.74128571	     -3.54339183	     -4.54638667	     -9.13980013	      0.99951401	      0.93092136	      0.41790126	     21.88510857	     -1.02113649	     -9.33834642	     15.12637901	     15.12637901	      2.37097459	      8.26775817	      3.74432786	      5.61586243	     -3.30094619	    -12.61118003	     17.73602750	     17.73602750	     16.95343542	    -11.77255819	     -0.55196946	     -9.44238861	      5.28983356	      3.04482078	    -16.76427195	    -11.04865585	     -4.65192392	     29.16457028	     45.90077530	      0.00000000	      0.00000000	     34.28033389	    -16.64457237	     -7.34280881	     69.17808524	     47.93356079	      0.00000000	      0.00000000
     16.76535714	     -3.66500809	     -4.30794069	     -9.29951667	      1.00035911	      0.93016789	      0.42124537	     21.85267898	     -0.91942807	     -9.56733946	     14.47945914	     14.47945914	      2.10651243	      8.85984682	      4.20678399	      5.03613807	     -3.20906212	    -13.05447992	     17.16003453	     17.16003453	     16.73485913	    -11.41671332	     -1.83791005	     -9.22810224	      5.14341716	      2.58062725	    -17.02650631	    -11.10045587	     -4.08868214	     29.72982704	     45.84444436	      0.00000000	      0.00000000	     34.02449373	    -16.91807296	     -9.05922750	     72.01088560	     48.08561215	      0.00000000	      0.00000000
     16.78942857	     -3.67788918	     -4.11002248	     -9.40324394	      1.00170679	      0.92965427	      0.42472852	     21.59471033	     -0.77458071	     -9.45924150	     14.11334059	     14.11334059	      1.92713737	      8.74718762	      3.88209486	      4.26782412	     -3.09566222	    -13.28357471	     16.52906886	     16.52906886	     16.88577433	    -11.10581862	     -1.95494394	     -9.07761101	      5.08345176	      2.80256902	    -17.29894869	    -11.07546057	     -3.86927984	     29.51271289	     45.83936422	      0.00000000	      0.00000000	     34.58033720	    -16.78720391	     -9.41191013	     73.00204417	     48.12677336	      0.00000000	      0.00000000
     16.81350000	     -3.85960326	     -4.00254664	     -9.39472957	      1.00325738	      0.92881981	      0.42832811	     21.50148885	     -0.59975108	     -9.44393027	     14.14317229	     14.14317229	      2.21794915	      8.66284206	      3.68989345	      3.91948263	     -3.16404205	    -13.26970890	     16.39815221	     16.39815221	     17.15640663	    -11.09840834	     -2.03406872	     -8.66898526	      5.18142141	      2.74721747	    -17.39520499	    -11.17382801	     -3.87205403	     29.46248031	     45.84135983	      0.00000000	      0.00000000	     34.98574705	    -16.88667693	     -9.50763987	     73.26143016	     48.14029724	      0.00000000	      0.00000000
     16.83757143	     -3.80125642	     -3.87764861	     -9.37418805	      1.00535904	      0.92831229	      0.43224263	     21.05362815	     -0.31839354	     -8.51393745	     14.13469937	     14.13469937	      1.10632856	      6.75661156	     -1.11626961	      2.98949569	     -3.18389352	    -13.64180879	     15.72078925	     15.72078925	     17.30971859	    -10.25415732	     -2.39594922	     -8.71236912	      5.21842001	      2.31102072	    -17.04406014	    -11.50524816	     -3.47210206	     29.06216329	     45.85087750	      0.00000000	      0.00000000	     34.46970268	    -16.77486778	    -11.73014651	     76.44448571	     48.32347769	      0.00000000	      0.00000000
     16.86164286	     -3.84660867	     -3.84186418	     -9.25799920	      1.00754029	      0.92781107	      0.43612875	     20.87807568	     -0.14613398	     -8.33777497	     14.78175796	     14.78175796	      1.71289839	      6.15491991	     -1.78922097	      2.30360053	     -3.28904967	    -13.56717091	     15.29204585	     15.29204585	     17.51798258	    -10.04520234	     -2.32119563	     -8.55681949	      5.45746302	      2.37715797	    -17.07416706	    -11.88260490	     -3.45716544	     28.91272371	     45.85849220	      0.00000000	      0.00000000	     34.84479929	    -16.71269155	    -11.81582145	     76.80671023	     48.33591020	      0.00000000	      0.00000000
     16.88571429	     -3.88354168	     -3.70194955	     -9.19400765	      1.00983643	      0.92735241	      0.44046224	     20.70985610	      0.02324503	     -7.64469962	     15.47013222	     15.47013222	      2.27295423	      4.85779845	     -2.89739266	      1.57764627	     -3.30117947	    -13.60298873	     14.80665430	     14.80665430	     17.72075559	     -9.76686053	     -2.12103330	     -8.39006158	      5.43513304	      2.51795927	    -17.01266892	    -12.15893864	     -3.42565209	     28.73862466	     45.86843257	      0.00000000	      0.00000000	     35.03683832	    -16.51438336	    -12.14908589	     77.50910818	     48.36781710	      0.00000000	      0.00000000
     16.90978571	     -3.96941393	     -3.84677465	     -8.97575898	      1.01215348	      0.92703304	      0.44490467	     20.42996864	      0.40811756	     -7.52345975	     16.00293954	     16.00293954	      2.85927240	      4.14352222	     -3.51218628	      1.00931107	     -3.68974857	    -13.43951627	     14.57193184	     14.57193184	     17.90284346	     -9.62775629	     -2.00462600	     -8.24363793	      5.79894500	      2.50502332	    -16.91712711	    -12.66185708	     -3.48629478	     28.66478124	     45.87922416	      0.00000000	      0.00000000	     35.21683892	    -16.43430545	    -12.31153100	     77.85510173	     48.38432121	      0.00000000	      0.00000000
     16.93385714	     -3.96551689	     -3.86501525	     -8.83034318	      1.01448760	      0.92686134	      0.44972074	     20.18063486	      0.75393530	     -6.86334999	     16.69408257	     16.69408257	      3.41471902	      2.72540367	     -4.40792689	      0.29153272	     -3.93870001	    -13.43973664	     14.22400009	     14.22400009	     18.10108904	     -9.32526781	     -1.68245292	     -8.21642643	      5.90498679	      2.49174003	    -16.73515039	    -13.02772738	     -3.54636235	     28.56350238	     45.89352172	      0.00000000	      0.00000000	     35.27162460	    -16.32374901	    -12.77143340	     78.52427198	     48.42370506	      0.00000000	      0.00000000
     16.95792857	     -4.15238685	     -4.01545151	     -8.55862944	      1.01666558	      0.92667242	      0.45460349	     19.89248653	      1.16887469	     -6.89004397	     16.95002296	     16.95002296	      4.00948524	      2.39175791	     -4.74857519	     -0.07503101	     -4.41668033	    -13.24970837	     14.11802498	     14.11802498	     18.14158639	     -9.20946949	     -1.57470683	     -7.97456762	      6.14832203	      2.42682979	    -16.61880182	    -13.43900240	     -3.61000740	     28.54550302	     45.90131298	      0.00000000	      0.00000000	     35.40264849	    -16.24501308	    -12.82231150	     78.69648504	     48.43024861	      0.00000000	      0.00000000
     16.98200000	     -4.15718686	     -4.23993184	     -8.29206840	      1.01880791	      0.92683378	      0.45983985	     19.42118336	      1.78246040	     -6.36770191	     17.12999430	     17.12999430	      3.91881264	      0.73734913	     -6.43333660	     -0.61073816	     -5.04347295	    -13.44115070	     14.16992048	     14.16992048	     18.94920246	     -8.20161932	     -0.01492646	     -8.03043428	      6.38749748	      1.84678631	    -15.85621964	    -13.88239769	     -3.72694641	     27.93474961	     45.96368220	      0.00000000	      0.00000000	     34.72265462	    -16.38264937	    -14.21050952	     80.11648061	     48.51955882	      0.00000000	      0.00000000
     17.00607143	     -4.24288853	     -4.46213199	     -7.95575391	      1.02074108	      0.92698507	      0.46500938	     19.04946152	      2.25706536	     -6.58073663	     17.34608962	     17.34608962	      4.44230426	      0.47816028	     -6.59746284	     -1.01992000	     -5.63963315	    -13.27479029	     14.12800950	     14.12800950	     18.85817554	     -8.11301471	      0.11764687	     -7.96819154	      6.57568409	      1.78481474	    -15.70078436	    -14.20414570	     -3.76586134	     27.94020458	     45.96921878	      0.00000000	      0.00000000	     34.83960537	    -16.28073416	    -14.14811691	     80.14681291	     48.51538675	      0.00000000	      0.00000000
